<svg xmlns="http://www.w3.org/2000/svg" width="1635.000000pt" height="1399.000000pt" viewBox="0 0 1635.000000 1399.000000" preserveAspectRatio="xMidYMid meet"><g transform="translate(0.000000,1399.000000) scale(0.100000,-0.100000)" fill="#000000" stroke="none"><path d="M8425 12760 c-1321 -57 -2658 -411 -3885 -1031 -454 -229 -636 -343 -761 -476 -56 -60 -118 -165 -120 -203 0 -9 -53 -41 -131 -80 -270 -135 -435 -247 -615 -414 -362 -339 -628 -808 -727 -1283 -67 -316 -63 -704 10 -1033 43 -192 92 -291 203 -412 166 -180 380 -268 621 -255 206 11 361 78 500 217 97 97 139 163 183 287 28 78 31 100 31 198 0 172 -27 319 -178 990 -94 418 -116 581 -116 850 0 280 25 412 138 723 l66 182 11 -52 c15 -71 35 -106 87 -155 60 -54 118 -87 212 -118 180 -60 143 -58 1119 -62 763 -3 897 -6 897 -18 0 -8 23 -59 51 -115 115 -225 306 -326 615 -323 l132 1 -25 -81 c-82 -267 -251 -537 -469 -747 -303 -292 -645 -474 -1226 -652 -114 -34 -208 -66 -208 -70 0 -5 57 -8 128 -9 254 -1 1472 -35 1478 -41 9 -10 -148 -109 -236 -150 -70 -33 -184 -77 -290 -111 -25 -8 -178 -51 -340 -95 -288 -79 -443 -128 -565 -179 -76 -32 -451 -246 -570 -326 -926 -619 -1658 -1758 -2208 -3432 -188 -569 -350 -1161 -402 -1457 -130 -750 -55 -1222 212 -1340 67 -29 178 -29 254 1 174 67 360 251 533 526 160 253 343 684 442 1035 261 932 687 1708 1247 2272 1007 1014 2443 1331 3998 884 972 -280 1926 -829 2849 -1637 186 -163 678 -646 820 -806 235 -264 349 -397 514 -604 250 -313 406 -526 701 -959 263 -386 485 -617 682 -711 132 -63 259 -50 351 34 83 77 125 179 144 347 17 158 3 255 -116 782 -58 255 -283 1251 -501 2213 -218 963 -438 1937 -490 2165 -52 228 -117 514 -144 635 -27 121 -113 501 -191 845 -78 344 -163 722 -190 840 -198 879 -271 1194 -274 1198 -5 5 -7 -3 -41 -222 -14 -87 -37 -204 -51 -260 -211 -834 -958 -1269 -1932 -1126 -757 111 -1453 576 -1751 1169 -78 154 -142 350 -158 479 l-6 52 114 -113 c195 -194 365 -315 614 -437 248 -122 497 -197 785 -236 187 -26 502 -23 690 5 445 67 787 214 1019 436 96 92 148 164 201 279 184 399 157 822 -74 1170 -149 224 -414 433 -696 549 -261 108 -675 230 -1054 312 -573 123 -1295 181 -1911 155z m810 -71 c689 -39 1379 -178 2004 -403 282 -102 489 -231 661 -413 140 -147 243 -324 290 -498 31 -114 39 -350 16 -466 -54 -267 -172 -482 -337 -615 -318 -257 -765 -396 -1274 -396 -320 -1 -575 41 -860 142 -402 141 -776 410 -1027 739 l-50 66 6 -107 c43 -663 491 -1265 1201 -1613 660 -324 1403 -363 1954 -104 313 147 562 397 710 710 52 110 107 278 139 419 l18 85 12 -50 c61 -271 220 -972 247 -1090 19 -82 99 -438 179 -790 272 -1200 597 -2639 752 -3325 85 -376 188 -831 229 -1010 142 -626 354 -1566 385 -1701 40 -179 48 -314 26 -439 -29 -162 -83 -256 -174 -297 -68 -32 -143 -28 -228 11 -197 90 -399 309 -712 768 -832 1225 -1689 2133 -2722 2885 -30 22 -136 94 -235 160 -1318 881 -2698 1252 -3925 1057 -553 -87 -1085 -305 -1552 -634 -775 -546 -1386 -1469 -1712 -2585 -126 -432 -230 -701 -382 -985 -268 -502 -583 -762 -804 -663 -163 73 -252 351 -237 743 15 381 91 748 306 1478 408 1384 893 2395 1505 3137 127 153 429 455 571 568 130 105 348 252 495 335 58 33 141 80 185 106 156 90 312 146 725 257 350 95 468 133 615 203 133 63 231 127 316 204 l63 59 -159 6 c-88 4 -389 11 -670 17 -280 6 -526 14 -545 17 -32 5 -25 9 85 47 174 62 244 91 389 163 722 361 1114 919 1186 1687 5 60 7 112 4 115 -3 3 -582 4 -1287 3 -1341 -4 -1413 -2 -1577 39 -41 10 -112 37 -157 59 -213 105 -229 252 -49 434 91 92 163 142 366 257 746 419 1612 759 2455 964 885 215 1714 293 2580 244z m-5815 -1929 c0 -5 -7 -27 -15 -47 -21 -55 -52 -183 -71 -298 -13 -72 -17 -157 -17 -300 -1 -288 25 -462 144 -979 84 -363 126 -578 145 -737 15 -128 15 -143 0 -211 -92 -413 -557 -622 -939 -421 -123 65 -242 194 -302 326 -58 129 -105 438 -105 690 0 240 20 388 81 608 149 536 534 1056 986 1331 81 50 93 54 93 38z"></path><path d="M4279 10344 c-226 -40 -351 -146 -379 -318 -16 -100 33 -345 66 -332 9 3 26 6 38 6 22 0 22 2 18 88 -11 223 83 378 294 484 56 28 90 51 95 66 8 20 5 22 -24 21 -18 0 -66 -7 -108 -15z"></path><path d="M10960 2869 c-112 -47 -134 -193 -41 -272 56 -46 143 -35 201 27 19 21 25 40 28 89 3 69 -15 112 -62 142 -32 21 -93 28 -126 14z"></path><path d="M11410 2766 c-127 -10 -135 -12 -138 -33 -2 -14 3 -23 18 -28 11 -4 28 -18 38 -33 15 -24 17 -67 17 -482 0 -489 -2 -506 -51 -528 -14 -7 -24 -20 -24 -32 0 -19 6 -20 215 -20 209 0 215 1 215 20 0 13 -10 24 -25 30 -54 20 -55 34 -55 600 l0 520 -37 -2 c-21 0 -99 -6 -173 -12z"></path><path d="M9060 2580 c-29 -162 -32 -193 -20 -200 11 -7 19 5 36 52 39 106 114 172 214 185 l41 6 -3 -444 c-3 -402 -5 -447 -21 -476 -11 -20 -28 -35 -45 -39 -48 -10 -52 -13 -52 -34 0 -20 5 -20 266 -20 l265 0 -3 23 c-2 15 -11 23 -29 25 -41 5 -72 45 -80 105 -4 28 -8 233 -8 455 -1 455 -9 417 82 386 62 -21 127 -87 163 -164 28 -61 54 -79 54 -37 0 29 -58 358 -64 364 -2 3 -14 0 -25 -6 -24 -13 -696 -11 -722 2 -13 7 -20 -20 -49 -183z"></path><path d="M3810 2730 c0 -12 10 -25 24 -32 49 -22 51 -39 51 -528 0 -488 0 -491 -51 -510 -14 -6 -24 -17 -24 -30 0 -19 6 -20 230 -20 224 0 230 1 230 20 0 13 -10 24 -25 30 -50 19 -55 53 -55 370 l0 290 140 0 140 0 0 -290 c0 -317 -5 -351 -55 -370 -15 -6 -25 -17 -25 -30 0 -19 6 -20 230 -20 212 0 230 1 230 18 0 9 -13 24 -29 34 -20 11 -33 29 -40 55 -7 24 -11 195 -11 471 0 471 2 492 55 512 15 6 25 17 25 30 0 19 -6 20 -230 20 l-230 0 0 -24 c0 -18 6 -25 23 -28 38 -5 57 -60 57 -165 l0 -93 -140 0 -140 0 0 98 c0 108 11 140 53 160 16 8 27 21 27 33 0 18 -9 19 -230 19 -224 0 -230 -1 -230 -20z"></path><path d="M5320 2484 c-19 -3 -83 -16 -142 -30 -85 -20 -111 -23 -128 -14 -12 6 -24 9 -27 6 -5 -5 -32 -237 -33 -278 0 -32 35 -20 48 16 7 19 28 54 47 78 76 100 247 127 298 46 20 -30 32 -114 18 -122 -6 -4 -58 -20 -117 -37 -135 -38 -204 -71 -270 -132 -65 -59 -89 -116 -88 -207 0 -81 30 -141 91 -183 33 -24 55 -30 110 -34 88 -6 162 20 233 83 27 25 50 40 50 33 0 -7 9 -32 21 -56 l21 -43 154 0 c148 0 154 1 154 20 0 13 -10 24 -24 30 -48 18 -51 36 -57 345 -5 245 -8 297 -23 338 -23 60 -74 113 -123 127 -45 12 -163 20 -213 14z m78 -486 c-9 -157 -74 -258 -147 -228 -109 45 -40 245 101 297 18 6 37 12 42 12 5 1 6 -36 4 -81z"></path><path d="M10350 2484 c-19 -3 -83 -16 -142 -30 -85 -20 -111 -23 -128 -14 -12 6 -23 10 -25 8 -1 -2 -8 -61 -14 -133 -7 -71 -15 -138 -17 -147 -4 -13 0 -18 15 -18 14 0 26 13 39 43 40 90 118 151 207 161 97 11 155 -37 155 -130 l0 -41 -112 -32 c-144 -40 -220 -78 -284 -139 -109 -104 -114 -278 -11 -369 48 -42 97 -57 173 -50 74 6 141 35 196 87 l39 38 9 -26 c6 -15 16 -38 23 -52 l13 -25 367 -3 c360 -2 367 -2 367 18 0 10 -9 24 -20 30 -49 26 -51 45 -50 440 0 204 -4 371 -9 374 -8 6 -276 -11 -318 -20 -31 -6 -30 -41 2 -56 13 -6 29 -24 35 -41 6 -18 10 -148 10 -334 0 -332 -4 -356 -56 -369 -34 -9 -75 22 -91 67 -8 23 -12 120 -12 295 -1 294 -8 339 -66 403 -20 22 -51 43 -73 49 -45 14 -170 22 -222 16z m86 -484 c-8 -100 -38 -181 -77 -215 -38 -31 -60 -32 -94 -2 -79 68 -6 237 122 282 21 8 42 14 47 15 5 0 6 -35 2 -80z"></path><path d="M12059 2480 c-102 -17 -187 -75 -237 -159 -23 -40 -27 -57 -27 -126 0 -63 4 -88 20 -115 28 -46 110 -95 215 -126 187 -55 210 -68 210 -119 0 -40 -30 -80 -78 -104 -128 -64 -265 -1 -323 147 -13 35 -30 62 -38 62 -11 0 -12 -27 -6 -162 6 -153 14 -194 29 -169 10 16 55 14 183 -11 99 -18 125 -20 185 -10 180 27 310 160 325 332 14 149 -66 223 -330 310 -101 33 -124 52 -112 90 14 44 104 63 188 39 46 -12 110 -67 127 -108 7 -19 17 -28 26 -24 11 4 14 31 14 122 0 65 -3 120 -6 124 -3 3 -16 2 -29 -3 -14 -5 -60 -3 -122 5 -108 16 -145 17 -214 5z"></path><path d="M5793 2453 c-4 -10 0 -21 11 -27 41 -25 48 -33 56 -71 5 -22 10 -253 10 -513 0 -523 -1 -533 -60 -553 -22 -8 -30 -17 -30 -35 l0 -24 225 0 225 0 0 23 c0 16 -9 28 -25 35 -45 21 -65 82 -65 204 l0 106 138 4 c111 3 148 8 193 26 143 56 229 199 229 377 0 243 -134 421 -341 454 -35 6 -176 11 -312 11 -223 0 -248 -2 -254 -17z m478 -130 c92 -47 139 -152 139 -314 0 -111 -20 -168 -79 -230 -75 -77 -157 -85 -181 -16 -6 18 -10 140 -10 308 l0 279 38 0 c22 0 62 -12 93 -27z"></path><path d="M6776 2455 c-5 -15 -2 -19 44 -54 l25 -19 3 -511 c3 -562 4 -555 -58 -581 -22 -9 -30 -19 -30 -36 l0 -24 228 2 c219 3 227 4 230 23 2 15 -6 23 -27 31 -48 19 -64 63 -69 195 l-4 117 144 3 c139 4 146 5 210 37 129 63 197 173 205 332 9 162 -38 300 -133 390 -101 96 -166 110 -520 110 -205 0 -243 -2 -248 -15z m478 -130 c42 -20 93 -84 114 -143 21 -60 31 -180 21 -247 -26 -158 -178 -275 -249 -190 -12 15 -16 72 -18 313 l-3 295 48 -5 c26 -3 66 -13 87 -23z"></path><path d="M7690 2441 c0 -12 11 -23 29 -29 15 -5 37 -25 49 -43 11 -19 75 -180 143 -359 122 -321 123 -326 124 -410 0 -100 -19 -148 -70 -180 -70 -43 -135 -10 -135 70 0 25 -5 40 -15 44 -17 6 -18 4 -69 -129 l-34 -90 26 -21 c99 -81 258 -62 334 38 45 59 29 18 289 741 49 136 99 263 112 282 12 19 37 42 55 52 17 10 32 26 32 35 0 16 -13 18 -150 18 -143 0 -150 -1 -150 -20 0 -13 9 -22 25 -26 27 -7 45 -31 45 -61 0 -29 -113 -394 -120 -386 -14 16 -113 360 -114 393 -1 30 3 37 32 49 19 9 32 22 32 33 0 17 -14 18 -235 18 -224 0 -235 -1 -235 -19z"></path></g></svg>